<svg xmlns="http://www.w3.org/2000/svg" width="71.062" height="70" viewBox="0 0 71.062 70">
  <defs>
    <style>
      .cls-1 {
        fill: #c3a882;
        fill-rule: evenodd;
      }
    </style>
  </defs>
  <path id="footer_logo" class="cls-1" d="M431.914,720.9l0.077,0.023a7.179,7.179,0,0,1,3.732,2.605c0.013,0.038.025,0.076,0.038,0.115a2.628,2.628,0,0,0,.541-0.25,7.386,7.386,0,0,1,5.439-.893l0.114,0.028a6.876,6.876,0,0,1,3.062,1.63c0.08,0.075.16,0.146,0.245,0.215a3.149,3.149,0,0,1,.388.412l0.048,0.058a7.688,7.688,0,0,1,.676.971l0.076,0.114v0.152h0.076l0.167,0.447,0.031,0.081,0.061,0.163c0.052,0.14.105,0.278,0.162,0.416a1.45,1.45,0,0,1,.15.645l0.063-.014a7.866,7.866,0,0,1,2.984-.1l0.086,0.014a7.177,7.177,0,0,1,3.761,1.928l0.063,0.059a5.358,5.358,0,0,1,.813.97l0.047,0.07a4.7,4.7,0,0,1,.448.806c0.026,0.058.051,0.116,0.076,0.174a7.657,7.657,0,0,1,.465,1.407c0.006,0.028.012,0.056,0.019,0.086a7.088,7.088,0,0,1,.09,1.506v0.2c0,0.159,0,.318,0,0.477a3.269,3.269,0,0,0,.456.124,7.56,7.56,0,0,1,3.086,1.247l0.1,0.07a7.376,7.376,0,0,1,.57.491c0.072,0.065.144,0.126,0.219,0.186a3.316,3.316,0,0,1,.372.4l0.076,0.086a8.246,8.246,0,0,1,.707,1.008q0.067,0.107.138,0.213a3.686,3.686,0,0,1,.387.933c0.022,0.074.045,0.147,0.069,0.22a7.317,7.317,0,0,1-.6,5.378,0.612,0.612,0,0,0-.1.312,0.518,0.518,0,0,0,.141.09l0.092,0.05,0.1,0.053a5.927,5.927,0,0,1,.888.607l0.1,0.075a6.014,6.014,0,0,1,1.426,1.525c0.026,0.04.026,0.04,0.052,0.082a7.8,7.8,0,0,1,.955,2.129c0.02,0.07.041,0.14,0.062,0.21a6.905,6.905,0,0,1-.826,5.071,5.057,5.057,0,0,1-1.691,1.915,0.554,0.554,0,0,0,.134.281l0.061,0.075,0.065,0.08a7.926,7.926,0,0,1,.731,1.164l0.07,0.126a7.289,7.289,0,0,1,.425,5.245,6.677,6.677,0,0,1-1.394,2.493c-0.049.053-.1,0.108-0.144,0.163a6.635,6.635,0,0,1-3.147,1.99h-0.076c0.007,0.021.014,0.042,0.022,0.063a7.943,7.943,0,0,1,.458,1.962,0.6,0.6,0,0,0,.053.26c0,0.065,0,.131,0,0.2v0.24c0,0.041,0,.083,0,0.125a1.177,1.177,0,0,1-.08.849l-0.027.208a6.8,6.8,0,0,1-1.839,3.715l-0.084.09a7.132,7.132,0,0,1-3.166,1.8l-0.113.033a6.2,6.2,0,0,1-1.8.215l-0.194,0-0.468,0,0,0.147a6.325,6.325,0,0,1-.168,1.651,2.853,2.853,0,0,0-.063.411h-0.077c0,0.023-.007.046-0.011,0.07a3.378,3.378,0,0,1-.2.675l-0.041.1a6.441,6.441,0,0,1-.852,1.479l-0.08.106a6.956,6.956,0,0,1-2.167,1.8l-0.074.039a7.8,7.8,0,0,1-2.059.722l-0.092.021a6.7,6.7,0,0,1-3.488-.249l-0.157-.051a5.687,5.687,0,0,1-.557-0.2,0.322,0.322,0,0,0-.239-0.052c-0.018.045-.036,0.089-0.054,0.136a7.124,7.124,0,0,1-3.183,3.711l-0.079.042a6.876,6.876,0,0,1-2.283.758l-0.083.011a7.266,7.266,0,0,1-2.735-.164l-0.134-.03a6.794,6.794,0,0,1-2.342-1.112c-0.02-.015-0.041-0.031-0.063-0.046a7.637,7.637,0,0,1-.965-0.868,1.213,1.213,0,0,0-.379.285,7.328,7.328,0,0,1-3.672,1.866c-0.065.013-.129,0.026-0.194,0.041a4.345,4.345,0,0,1-.96.065h-0.293a6.874,6.874,0,0,1-1.129-.086l-0.109-.016a6.7,6.7,0,0,1-4.225-2.627c-0.042-.055-0.084-0.11-0.127-0.164a6.8,6.8,0,0,1-.559-0.917c-0.048-.089-0.1-0.178-0.149-0.266a1.691,1.691,0,0,1-.154-0.348c-0.009-.027-0.017-0.054-0.026-0.083s-0.014-.049-0.022-0.074l-0.038-.114-0.138.05a7.827,7.827,0,0,1-6.036-.008,8.781,8.781,0,0,1-1.862-1.223l-0.076-.061a3,3,0,0,1-.389-0.392c-0.045-.052-0.091-0.1-0.138-0.154a7.735,7.735,0,0,1-1.8-4.8l-0.088,0a8.124,8.124,0,0,1-2.988-.5c-0.105-.043-0.211-0.081-0.318-0.119A6.542,6.542,0,0,1,402,777.363l-0.076-.071a7.017,7.017,0,0,1-2.007-3.831c-0.009-.044-0.017-0.089-0.026-0.135a7.259,7.259,0,0,1,.351-3.6,0.33,0.33,0,0,0-.02-0.229,0.684,0.684,0,0,0-.21-0.076,3.786,3.786,0,0,1-.5-0.189c-0.058-.027-0.116-0.052-0.175-0.077a5.176,5.176,0,0,1-.686-0.365l-0.09-.054a3.7,3.7,0,0,1-.429-0.305l-0.086-.067a7.089,7.089,0,0,1-2.39-3.361c-0.024-.07-0.024-0.07-0.049-0.14a6.273,6.273,0,0,1-.261-2c0-.087,0-0.174,0-0.261a5.226,5.226,0,0,1,.112-1.309l0.021-.083q0.03-.121.063-0.243c0.011-.045.023-0.09,0.034-0.136a5.894,5.894,0,0,1,1.434-2.685,0.115,0.115,0,0,0,.047-0.148,0.425,0.425,0,0,0-.142-0.193l-0.071-.063-0.076-.068a6.967,6.967,0,0,1-1.531-1.93c-0.036-.067-0.072-0.134-0.109-0.2a6.3,6.3,0,0,1-.436-1.118c-0.021-.068-0.042-0.136-0.064-0.2a6.321,6.321,0,0,1-.077-3.35l0.051-.2a7.263,7.263,0,0,1,1.244-2.546l0.083-.111a7.346,7.346,0,0,1,1.924-1.689l0.086-.053a0.97,0.97,0,0,1,.459-0.166c-0.079-.191-0.167-0.375-0.262-0.559a6.66,6.66,0,0,1-.462-1.147c-0.028-.091-0.059-0.176-0.1-0.264a2.379,2.379,0,0,1-.119-0.56c0-.034-0.009-0.068-0.014-0.1-0.013-.1-0.026-0.2-0.038-0.3,0-.029-0.007-0.058-0.011-0.087a6.665,6.665,0,0,1,1.318-4.789c0.083-.1.168-0.2,0.255-0.3l0.082-.1a6.372,6.372,0,0,1,2.622-1.885l0.162-.069a7.469,7.469,0,0,1,1.59-.426l0.139-.024,0.318-.052c0-.031-0.006-0.061-0.008-0.093a7.215,7.215,0,0,1,.084-2.116l0.024-.11a7.224,7.224,0,0,1,.471-1.452c0.014-.033.028-0.067,0.043-0.1a6.128,6.128,0,0,1,1.062-1.613l0.06-.069a6.9,6.9,0,0,1,3.618-2.09l0.1-.023a6.388,6.388,0,0,1,1.49-.155h0.09a8,8,0,0,1,1.565.158,0.417,0.417,0,0,0,.242-0.029,2.277,2.277,0,0,0,.095-0.3c0.017-.06.033-0.119,0.049-0.179l0.024-.088a5.634,5.634,0,0,1,.327-0.883c0.029-.064.058-0.129,0.086-0.193l0.067-.15h0.076l0.009-.079a1.178,1.178,0,0,1,.184-0.366l0.046-.071a6.95,6.95,0,0,1,4.143-2.917l0.115-.029a7.481,7.481,0,0,1,1.766-.173h0.1a6.838,6.838,0,0,1,3.316.855c0.04,0.02.079,0.041,0.119,0.063a4.9,4.9,0,0,1,.538.326,0.162,0.162,0,0,0,.144.025,0.456,0.456,0,0,0,.2-0.188,7.038,7.038,0,0,1,3.721-2.512l0.1-.027A7.3,7.3,0,0,1,431.914,720.9Zm-5.9,2.628-0.057.049a5.387,5.387,0,0,0-.743.789l-0.1.126a2.885,2.885,0,0,0-.625,1.131h-0.076l-0.076.3a0.809,0.809,0,0,1-.326-0.269,4.388,4.388,0,0,0-.626-0.569l-0.121-.1a5.61,5.61,0,0,0-1.471-.822c-0.053-.021-0.105-0.042-0.156-0.064a3.528,3.528,0,0,0-.733-0.183l-0.133-.025-0.357-.066-0.115-.021a4.525,4.525,0,0,0-1.6.059l-0.15.031a6.01,6.01,0,0,0-2.973,1.607l-0.09.082a5.175,5.175,0,0,0-.672.832l-0.084.121a1.388,1.388,0,0,0-.14.284,3.568,3.568,0,0,1-.2.426,2.282,2.282,0,0,0-.206.635,0.178,0.178,0,0,1-.058.134c-0.021.1-.04,0.194-0.058,0.293-0.007.04-.007,0.04-0.015,0.081l-0.042.235-0.02.11a2.257,2.257,0,0,0-.022.349c0,0.064,0,.064,0,0.128,0,0.044,0,.087,0,0.132v0.135c0,0.109,0,.218,0,0.327l-0.129-.057a6.9,6.9,0,0,0-3.375-.667l-0.076.038c-0.073.013-.146,0.023-0.219,0.034a6.147,6.147,0,0,0-2.066.69l-0.127.068a5.731,5.731,0,0,0-1.092.846l-0.084.077a4.161,4.161,0,0,0-.983,1.408c-0.021.049-.042,0.1-0.064,0.145a4.753,4.753,0,0,0-.482,2.059c0,0.082,0,.163,0,0.245a6,6,0,0,0,.186,1.515c0.017,0.066.033,0.133,0.05,0.2,0.007,0.028.015,0.056,0.022,0.085,0.026,0.12.043,0.24,0.059,0.361l-0.142,0-0.529.01-0.227,0a6.627,6.627,0,0,0-1.625.179l-0.091.024a5.5,5.5,0,0,0-.893.356c-0.069.032-.14,0.062-0.21,0.091a2.739,2.739,0,0,0-.389.217l-0.071.046a5.7,5.7,0,0,0-.584.442l-0.057.049a5.53,5.53,0,0,0-1.276,1.551v0.114h-0.076a7.586,7.586,0,0,0-.436,1.164l-0.028.1a5.105,5.105,0,0,0,.007,2.466c0.016,0.063.031,0.126,0.047,0.19a7.46,7.46,0,0,0,1.473,2.741,1,1,0,0,1,.155.23l-0.131.013a3.04,3.04,0,0,0-.506.116l-0.086.024a0.963,0.963,0,0,0-.381.19c-0.057.026-.115,0.049-0.174,0.071a5.312,5.312,0,0,0-2.492,1.986c-0.017.024-.033,0.049-0.05,0.074a6.01,6.01,0,0,0-.843,2.012c-0.018.071-.039,0.141-0.061,0.211a2.815,2.815,0,0,0-.051.716v0.083a5.289,5.289,0,0,0,.167,1.36c0.008,0.031.015,0.062,0.023,0.094a5.4,5.4,0,0,0,.891,1.924c0.015,0.021.031,0.042,0.046,0.064a6.936,6.936,0,0,0,1.744,1.612l0.119,0.088a1.232,1.232,0,0,0,.414.141v0.076l0.229,0.038v0.114l-0.083.029a5.283,5.283,0,0,0-2.25,2.795,5.746,5.746,0,0,0,.084,4.344,6.021,6.021,0,0,0,.954,1.478l0.083,0.1a5.861,5.861,0,0,0,1.1.93l0.089,0.064a2.249,2.249,0,0,0,.523.274c0.112,0.043.221,0.091,0.33,0.14a6.5,6.5,0,0,0,2.105.512,0.5,0.5,0,0,1-.191.343,0.846,0.846,0,0,0-.19.457h-0.076a6.77,6.77,0,0,0-.5,4.342h0.077c0,0.043.007,0.087,0.011,0.131a1.968,1.968,0,0,0,.146.5c0.012,0.03.023,0.06,0.036,0.091a4.916,4.916,0,0,0,.645,1.14l0.072,0.1a5.3,5.3,0,0,0,1.261,1.2l0.071,0.046c0.178,0.115.357,0.225,0.538,0.335l0.1,0.061a2.627,2.627,0,0,0,.587.244,1.557,1.557,0,0,1,.234.093,2.877,2.877,0,0,0,.587.159l0.117,0.025a7.406,7.406,0,0,0,3.213-.2c-0.024.156-.049,0.312-0.074,0.469l-0.021.134c-0.006.043-.013,0.086-0.02,0.13s-0.013.078-.019,0.119a1.031,1.031,0,0,1-.056.214,6.312,6.312,0,0,0,.152,2.019c0.008,0.032.016,0.063,0.025,0.1a5.584,5.584,0,0,0,1.765,2.913l0.087,0.078a6.163,6.163,0,0,0,4.331,1.369,6.388,6.388,0,0,0,3.059-1.148l0.08-.056,0.069-.051a0.665,0.665,0,0,1,.22-0.078L418.8,783.9c0.064,0.344.132,0.686,0.208,1.028h0.076c0,0.045,0,.045.009,0.09a2.643,2.643,0,0,0,.181.517l0.047,0.107a5.758,5.758,0,0,0,1.052,1.6c0.073,0.08.142,0.161,0.211,0.244a5.473,5.473,0,0,0,2.994,1.559l0.126,0.026a5.918,5.918,0,0,0,4.254-1.016,4.312,4.312,0,0,0,.381-0.3l0.093-.08a7.323,7.323,0,0,0,1.121-1.213l0.057-.08,0.113-.157c0.044-.063.092-0.123,0.14-0.184h0.076a1.116,1.116,0,0,1,.1.137l0.058,0.09c0.02,0.032.041,0.064,0.063,0.1a6.132,6.132,0,0,0,.79.949c0.048,0.049.1,0.1,0.142,0.15a5.583,5.583,0,0,0,3.661,1.668,5.7,5.7,0,0,0,1.436-.082l0.09-.02a5.878,5.878,0,0,0,3.414-2.113l0.047-.061a7.864,7.864,0,0,0,.639-1c0.019-.035.039-0.07,0.058-0.106a2.016,2.016,0,0,0,.209-0.618h0.076a5.873,5.873,0,0,0,.228-0.914c0.014-.079.029-0.157,0.043-0.236,0.006-.035.013-0.07,0.019-0.106s0.01-.051.014-0.077a1.8,1.8,0,0,1,.419.226,7.1,7.1,0,0,0,1.867.879l0.129,0.038a6.134,6.134,0,0,0,4.479-.61,5.915,5.915,0,0,0,2.171-2.209v-0.076h0.076c0.124-.3.24-0.609,0.353-0.915,0.019-.051.039-0.1,0.059-0.15a4.3,4.3,0,0,0,.207-1.608v-0.077a3.985,3.985,0,0,0-.1-1.039c-0.056-.232-0.1-0.47-0.138-0.7l0.09,0.029a8.014,8.014,0,0,0,.939.237l0.1,0.02a3.288,3.288,0,0,0,.444.028h0.092a6.534,6.534,0,0,0,3.361-.772l0.114-.058a5.228,5.228,0,0,0,2.474-2.977c0.048-.155.092-0.31,0.133-0.467,0.02-.073.041-0.146,0.062-0.219a5.609,5.609,0,0,0-.193-3.1c-0.011-.036-0.021-0.071-0.032-0.108a2.723,2.723,0,0,0-.194-0.459c-0.033-.066-0.062-0.133-0.091-0.2a4.627,4.627,0,0,0-.257-0.494,2.434,2.434,0,0,1-.264-0.528l0.1,0a6.1,6.1,0,0,0,4.142-1.991,5.618,5.618,0,0,0,1.215-2.228c0.013-.047.013-0.047,0.027-0.1a5.055,5.055,0,0,0,.161-1.38c0-.088,0-0.177,0-0.266a4.6,4.6,0,0,0-.269-1.539c-0.013-.039-0.026-0.079-0.04-0.119a6.082,6.082,0,0,0-1.305-2.131l-0.09-.1a5.247,5.247,0,0,0-.727-0.612l-0.083-.061-0.075-.055-0.053-.048v-0.076a0.829,0.829,0,0,1,.343-0.152v-0.076l0.078-.027a2.333,2.333,0,0,0,.386-0.226l0.076-.051a6.912,6.912,0,0,0,.6-0.458l0.1-.08a5.723,5.723,0,0,0,1.931-3.7c0.013-.193.015-0.386,0.014-0.58v-0.09a5.586,5.586,0,0,0-1.659-3.91,6.344,6.344,0,0,0-1.447-1.014l-0.124-.069a5.86,5.86,0,0,0-1.019-.388l-0.123-.039a1.219,1.219,0,0,0-.41-0.075,1.679,1.679,0,0,1,.286-0.412,6.012,6.012,0,0,0,1.5-4.273,5.234,5.234,0,0,0-.228-1.219l-0.039-.133a4.488,4.488,0,0,0-.266-0.7c-0.016-.036-0.033-0.071-0.05-0.107a5.58,5.58,0,0,0-3.195-2.776l-0.179-.061c-0.068-.023-0.136-0.048-0.2-0.074a5.471,5.471,0,0,0-1.773-.232h-0.111a3.627,3.627,0,0,0-.734.088c0.007-.022.014-0.045,0.022-0.068a5.945,5.945,0,0,0,.092-3.969c-0.011-.029-0.023-0.059-0.034-0.089a4.8,4.8,0,0,0-.5-1.054l-0.063-.093c-0.066-.1-0.134-0.193-0.2-0.288l-0.066-.089a5.745,5.745,0,0,0-3.788-2.144c-0.274-.026-0.551-0.023-0.826-0.023h-0.09a5.89,5.89,0,0,0-1.324.124l-0.125.025a3.736,3.736,0,0,0-1.176.474,0.354,0.354,0,0,1-.223.034c0-.029,0-0.057,0-0.087a5.888,5.888,0,0,0-.453-2.427l-0.067-.136c-0.045-.091-0.09-0.181-0.136-0.271s-0.083-.174-0.119-0.262a5.331,5.331,0,0,0-2.674-2.343c-0.192-.073-0.386-0.139-0.582-0.2-0.064-.02-0.127-0.042-0.189-0.065a5.519,5.519,0,0,0-3.05,0l-0.094.026a6.224,6.224,0,0,0-2.877,1.841c-0.013.025-.025,0.05-0.038,0.076l-0.115.038-0.028-.114a1.866,1.866,0,0,0-.158-0.374c-0.035-.069-0.065-0.139-0.094-0.21a2.6,2.6,0,0,0-.219-0.4l-0.046-.07a6.2,6.2,0,0,0-.483-0.625l-0.07-.084a3.974,3.974,0,0,0-.5-0.487l-0.1-.087A5.906,5.906,0,0,0,426.011,723.528Zm3.852,8.448h1.32a1.746,1.746,0,0,1,.313.043c0.06,0.006.12,0.012,0.18,0.016l0.1,0.008,0.112,0.009c0.447,0.037.889,0.1,1.332,0.165l0.114,0.017a24.662,24.662,0,0,1,5.585,1.537l0.1,0.04a23.313,23.313,0,0,1,3.9,2.055l0.159,0.1c0.489,0.32.955,0.67,1.416,1.029l0.193,0.149c0.434,0.336.849,0.692,1.252,1.063,0.054,0.049.108,0.1,0.163,0.144,0.261,0.221.5,0.465,0.741,0.708l0.232,0.231c0.235,0.235.466,0.47,0.681,0.724,0.06,0.066.12,0.131,0.181,0.2,0.181,0.2.346,0.4,0.51,0.617,0.072,0.093.145,0.185,0.22,0.276a21.108,21.108,0,0,1,1.488,2.111l0.087,0.136c0.178,0.281.35,0.564,0.518,0.852,0.017,0.029.035,0.058,0.052,0.088a1.135,1.135,0,0,1,.3.676h0.076a6.5,6.5,0,0,1,.422.9c0.031,0.081.065,0.159,0.1,0.238,0.1,0.221.192,0.445,0.285,0.67l0.09,0.217c0.1,0.247.2,0.5,0.288,0.748a0.55,0.55,0,0,0,.109.2c0.017,0.077.034,0.155,0.05,0.232,0.072,0.305.177,0.6,0.277,0.9l0.031,0.09c0.019,0.058.039,0.115,0.059,0.172a5.884,5.884,0,0,1,.191.775c0.038,0.19.085,0.378,0.135,0.566a6.674,6.674,0,0,1,.157.794,0.277,0.277,0,0,0,.052.165c0.069,0.35.1,0.708,0.147,1.062q0.037,0.308.082,0.613a22.016,22.016,0,0,1-.153,6.324l-0.018.126c-0.039.26-.078,0.519-0.136,0.776a2.36,2.36,0,0,0-.055.345,1.171,1.171,0,0,1-.095.352c-0.01.05-.019,0.1-0.028,0.151-0.064.327-.164,0.646-0.258,0.966-0.015.052-.015,0.052-0.031,0.1a25.567,25.567,0,0,1-1.389,3.669q-0.063.134-.123,0.27c-0.2.433-.43,0.844-0.667,1.256-0.047.081-.094,0.164-0.14,0.246a21.977,21.977,0,0,1-2.316,3.279l-0.049.059q-0.357.429-.738,0.838c-0.049.053-.1,0.106-0.145,0.16-0.224.249-.457,0.489-0.694,0.726-0.03.031-.06,0.061-0.092,0.092-0.161.161-.325,0.315-0.5,0.464-0.106.092-.208,0.188-0.311,0.284-0.217.2-.442,0.391-0.673,0.576l-0.2.169q-0.35.285-.709,0.555l-0.071.054a25.373,25.373,0,0,1-3.395,2.117l-0.105.055a22.315,22.315,0,0,1-2.942,1.24l-0.131.047a18.7,18.7,0,0,1-1.971.565c-0.1.024-.2,0.049-0.3,0.075-0.331.085-.66,0.155-1,0.211l-0.145.024q-0.858.143-1.722,0.245l-0.116.014a18.493,18.493,0,0,1-2.157.081h-0.427a17.7,17.7,0,0,1-2.4-.117l-0.24-.031-0.229-.03c-0.157-.02-0.314-0.037-0.472-0.053a18.036,18.036,0,0,1-1.978-.386l-0.082-.019c-0.31-.072-0.616-0.152-0.919-0.249-0.117-.036-0.233-0.069-0.351-0.1a15.1,15.1,0,0,1-1.644-.564c-0.149-.061-0.3-0.116-0.448-0.171-0.2-.075-0.4-0.156-0.6-0.247-0.093-.044-0.186-0.085-0.28-0.126a22.971,22.971,0,0,1-3.305-1.834l-0.073-.048c-0.274-.178-0.54-0.367-0.8-0.561l-0.067-.05c-0.393-.29-0.775-0.591-1.151-0.9q-0.033-.025-0.066-0.054c-0.322-.265-0.628-0.547-0.932-0.834l-0.316-.29a7.992,7.992,0,0,1-.676-0.689c-0.065-.072-0.131-0.141-0.2-0.208-0.142-.14-0.271-0.288-0.4-0.438l-0.1-.12c-0.247-.284-0.484-0.575-0.715-0.873l-0.189-.241c-0.27-.344-0.535-0.691-0.782-1.052l-0.067-.1a26.21,26.21,0,0,1-1.571-2.608q-0.03-.055-0.06-0.114a22.2,22.2,0,0,1-2.073-5.79l-0.018-.083a23.315,23.315,0,0,1-.388-2.449c-0.012-.118-0.024-0.237-0.037-0.355a21.479,21.479,0,0,1-.1-2.3v-0.138a18.167,18.167,0,0,1,.11-2.188c0-.039,0-0.039.009-0.078,0.321-2.59.321-2.59,0.691-3.5,0.018-.074.037-0.147,0.054-0.221,0.039-.151.088-0.3,0.136-0.448,0.067-.208.131-0.416,0.19-0.626,0.018-.053.036-0.106,0.055-0.159a4.264,4.264,0,0,0,.114-0.412,2.354,2.354,0,0,1,.172-0.483c0.032-.071.06-0.143,0.087-0.216,0.083-.225.18-0.444,0.275-0.663,0.033-.075.065-0.15,0.1-0.226,0.115-.267.236-0.529,0.37-0.788,0.065-.132.12-0.268,0.173-0.406a1.164,1.164,0,0,1,.067-0.151h0.076c0-.026.007-0.051,0.01-0.078a1.646,1.646,0,0,1,.168-0.393l0.046-.085a23.552,23.552,0,0,1,3.269-4.566l0.158-.177c0.246-.278.506-0.54,0.769-0.8l0.229-.23c0.234-.234.468-0.464,0.721-0.677l0.133-.117a26.3,26.3,0,0,1,5.58-3.675l0.071-.036c0.152-.076.306-0.144,0.463-0.21l0.079-.036a0.7,0.7,0,0,1,.34-0.078v-0.076l0.133-.046,0.188-.066,0.1-.036c0.23-.08.46-0.163,0.689-0.246a24.022,24.022,0,0,1,3.609-1.015l0.121-.024q0.78-.152,1.567-0.25l0.141-.018,0.373-.042,0.172-.019A17.955,17.955,0,0,1,429.863,731.976Zm-2.443,1.569-0.133.015a20.031,20.031,0,0,0-2.844.519c-0.093.024-.187,0.047-0.281,0.069a18.36,18.36,0,0,0-2.4.77c-0.209.079-.419,0.153-0.63,0.227v0.076l-0.074.01a1.912,1.912,0,0,0-.352.132c-0.1.047-.207,0.091-0.31,0.135a17.283,17.283,0,0,0-2.083,1.094l-0.106.064c-0.5.3-.982,0.623-1.455,0.965l-0.1.068c-0.348.251-.688,0.507-1.013,0.789-0.105.09-.212,0.177-0.32,0.264-0.2.162-.386,0.334-0.574,0.509-0.1.1-.2,0.188-0.308,0.28-0.2.183-.4,0.374-0.592,0.568l-0.171.171c-0.182.182-.36,0.366-0.527,0.561-0.078.092-.16,0.179-0.242,0.268-0.187.2-.363,0.418-0.538,0.635l-0.07.086a21.779,21.779,0,0,0-2.058,3.04c-0.036.062-.074,0.122-0.112,0.181a0.255,0.255,0,0,0-.045.235h-0.076l-0.057.131c-0.082.185-.167,0.369-0.252,0.553l-0.041.087-0.038.083c-0.012.024-.023,0.049-0.035,0.074a0.416,0.416,0,0,1-.11.139c-0.024.053-.046,0.107-0.067,0.161-0.062.162-.129,0.322-0.2,0.481-0.019.046-.039,0.091-0.06,0.138-0.03.071-.061,0.142-0.092,0.212s-0.06.14-.091,0.209-0.026.062-.053,0.124a3.748,3.748,0,0,0-.125.389c-0.028.082-.057,0.163-0.087,0.245-0.108.3-.205,0.6-0.3,0.9l-0.075.236c-0.023.07-.045,0.141-0.067,0.211-0.036.106-.076,0.209-0.117,0.312s-0.065.23-.1,0.345c-0.009.03-.017,0.06-0.025,0.091-0.055.209-.094,0.417-0.128,0.63-0.024.144-.054,0.286-0.086,0.428a18.388,18.388,0,0,0-.4,2.872l0,0.084c-0.033.591-.037,1.183-0.039,1.775v0.134a14.245,14.245,0,0,0,.086,1.678c0,0.044.009,0.087,0.014,0.133a25.17,25.17,0,0,0,.438,2.672c0.058,0.27.108,0.541,0.158,0.813h0.076c0,0.076,0,.151,0,0.227a0.372,0.372,0,0,0,.042.192h0.076c0,0.037.009,0.075,0.013,0.113a2.937,2.937,0,0,0,.122.48c0.01,0.031.019,0.062,0.029,0.093l0.062,0.194c0.031,0.1.061,0.2,0.092,0.292a9.337,9.337,0,0,0,.368,1l0.109,0.258a24.462,24.462,0,0,0,1.376,2.789l0.059,0.1a20.774,20.774,0,0,0,1.568,2.312l0.149,0.192c0.355,0.46.737,0.9,1.131,1.323,0.068,0.072.135,0.146,0.2,0.219a11.829,11.829,0,0,0,1.119,1.12c0.082,0.07.161,0.142,0.239,0.215,0.194,0.18.392,0.353,0.6,0.52,0.085,0.068.169,0.137,0.253,0.206a20.3,20.3,0,0,0,4.983,3.045l0.2,0.086a23.858,23.858,0,0,0,4.16,1.326l0.144,0.033a20.059,20.059,0,0,0,4.444.467h0.366a19.794,19.794,0,0,0,2.232-.1l0.085-.009a20.02,20.02,0,0,0,4.083-.86c0.1-.033.2-0.063,0.3-0.093a21.253,21.253,0,0,0,6.013-2.978l0.138-.1c0.451-.318.886-0.655,1.31-1.008l0.059-.049c0.286-.238.564-0.484,0.837-0.738l0.162-.146c0.242-.218.475-0.444,0.706-0.674l0.087-.086c0.157-.158.307-0.318,0.452-0.487,0.073-.085.149-0.168,0.225-0.251,0.146-.162.286-0.328,0.424-0.5,0.069-.086.139-0.171,0.209-0.256a19.391,19.391,0,0,0,1.9-2.757l0.058-.1a24.661,24.661,0,0,0,2.161-5.013c0.011-.034.021-0.067,0.032-0.1a2.945,2.945,0,0,0,.111-0.612h0.076q0.115-.586.228-1.172c0.025-.131.051-0.261,0.076-0.392a14.821,14.821,0,0,0,.305-2.169c0-.06.007-0.121,0.01-0.181,0.027-.514.035-1.026,0.033-1.54V755.93a21.344,21.344,0,0,0-.525-4.9c-0.053-.226-0.092-0.454-0.127-0.683h-0.076l-0.014-.15a1.782,1.782,0,0,0-.136-0.605,2.044,2.044,0,0,1-.117-0.349l-0.054-.164c-0.01-.029-0.02-0.057-0.03-0.087l-0.06-.174a4.044,4.044,0,0,1-.141-0.529,0.921,0.921,0,0,0-.129-0.261,2.065,2.065,0,0,1-.128-0.321c-0.106-.306-0.237-0.6-0.372-0.893-0.031-.071-0.062-0.142-0.092-0.213-0.057-.132-0.119-0.26-0.184-0.389-0.011-.022-0.023-0.045-0.034-0.068l-0.109-.215-0.143-.283-0.063-.126c-0.063-.129-0.119-0.259-0.175-0.391h-0.076l-0.012-.081a1.2,1.2,0,0,0-.143-0.331c-0.02-.037-0.041-0.074-0.063-0.112l-0.048-.085h-0.077l-0.022-.09a2.884,2.884,0,0,0-.3-0.534l-0.073-.113a20.444,20.444,0,0,0-2.221-2.894q-0.146-.155-0.282-0.315c-0.177-.2-0.369-0.393-0.56-0.583l-0.19-.19c-0.212-.212-0.427-0.419-0.657-0.614l-0.133-.117a23.292,23.292,0,0,0-2.392-1.839l-0.072-.048a22.339,22.339,0,0,0-9.4-3.556l-0.107-.015A22.407,22.407,0,0,0,427.42,733.545Z" transform="translate(-394.344 -720.625)"/>
</svg>
