<svg xmlns="http://www.w3.org/2000/svg" width="50.718" height="50" viewBox="0 0 50.718 50">
  <defs>
    <style>
      .cls-1 {
        fill: #7e5139;
        fill-rule: evenodd;
      }
    </style>
  </defs>
  <path id="silmus_logo" class="cls-1" d="M180.913,128.867l0.054,0.016a5.127,5.127,0,0,1,2.666,1.861c0.009,0.027.018,0.054,0.028,0.082a1.926,1.926,0,0,0,.386-0.178,5.273,5.273,0,0,1,3.885-.638l0.082,0.02a4.913,4.913,0,0,1,2.187,1.164c0.057,0.054.114,0.105,0.175,0.154a2.334,2.334,0,0,1,.277.294l0.034,0.042a5.435,5.435,0,0,1,.483.693l0.054,0.082v0.108h0.055c0.04,0.107.08,0.213,0.119,0.319,0.008,0.019.015,0.039,0.022,0.059,0.015,0.038.029,0.077,0.044,0.116,0.037,0.1.075,0.2,0.116,0.3a1.043,1.043,0,0,1,.107.461l0.045-.01a5.624,5.624,0,0,1,2.132-.072l0.061,0.01a5.129,5.129,0,0,1,2.687,1.378l0.044,0.042a3.742,3.742,0,0,1,.581.693c0.017,0.024.017,0.024,0.034,0.05a3.333,3.333,0,0,1,.32.575c0.018,0.042.036,0.083,0.055,0.125a5.528,5.528,0,0,1,.331,1c0,0.02.009,0.04,0.014,0.061a5.1,5.1,0,0,1,.064,1.076v0.141c0,0.113,0,.227,0,0.34a2.3,2.3,0,0,0,.325.089,5.4,5.4,0,0,1,2.205.891l0.069,0.05c0.143,0.108.275,0.228,0.407,0.35,0.051,0.047.1,0.091,0.157,0.134a2.437,2.437,0,0,1,.265.282l0.054,0.062a5.923,5.923,0,0,1,.5.72l0.1,0.152a2.617,2.617,0,0,1,.276.667c0.016,0.052.033,0.105,0.05,0.157a5.23,5.23,0,0,1-.425,3.842,0.413,0.413,0,0,0-.069.223,0.324,0.324,0,0,0,.1.063l0.065,0.036,0.071,0.038a4.231,4.231,0,0,1,.634.434l0.07,0.053a4.312,4.312,0,0,1,1.019,1.09l0.037,0.058a5.569,5.569,0,0,1,.682,1.522c0.014,0.05.029,0.1,0.044,0.149a4.929,4.929,0,0,1-.59,3.623,3.62,3.62,0,0,1-1.207,1.368,0.4,0.4,0,0,0,.095.2c0.015,0.017.029,0.035,0.043,0.053l0.047,0.057a5.639,5.639,0,0,1,.522.832c0.017,0.029.033,0.059,0.05,0.09a5.2,5.2,0,0,1,.3,3.746,4.765,4.765,0,0,1-1,1.781c-0.035.038-.069,0.078-0.1,0.117a4.739,4.739,0,0,1-2.248,1.421h-0.054c0.005,0.015.01,0.03,0.016,0.046a5.722,5.722,0,0,1,.327,1.4,0.418,0.418,0,0,0,.038.186c0,0.046,0,.093,0,0.139v0.262a0.834,0.834,0,0,1-.058.606c-0.006.049-.013,0.1-0.019,0.149a4.853,4.853,0,0,1-1.314,2.653l-0.06.065a5.1,5.1,0,0,1-2.261,1.287l-0.081.024a4.443,4.443,0,0,1-1.288.153h-0.139l-0.334,0c0,0.034,0,.069,0,0.1a4.5,4.5,0,0,1-.12,1.179,2.244,2.244,0,0,0-.045.294H195.17l-0.009.05a2.322,2.322,0,0,1-.143.482l-0.029.071a4.6,4.6,0,0,1-.608,1.056l-0.058.076a4.951,4.951,0,0,1-1.548,1.285l-0.052.028a5.6,5.6,0,0,1-1.471.516l-0.066.015a4.789,4.789,0,0,1-2.492-.178l-0.112-.036a4.026,4.026,0,0,1-.4-0.145,0.228,0.228,0,0,0-.17-0.037l-0.039.1a5.083,5.083,0,0,1-2.274,2.651l-0.056.03a4.916,4.916,0,0,1-1.631.541l-0.059.009a5.209,5.209,0,0,1-1.954-.117l-0.1-.022a4.841,4.841,0,0,1-1.673-.795l-0.044-.032a5.275,5.275,0,0,1-.69-0.621,0.884,0.884,0,0,0-.271.2,5.236,5.236,0,0,1-2.623,1.334c-0.046.008-.092,0.018-0.138,0.029a3.16,3.16,0,0,1-.687.046H175.57a4.939,4.939,0,0,1-.806-0.062l-0.078-.011a4.787,4.787,0,0,1-3.018-1.876c-0.03-.04-0.06-0.079-0.091-0.118a4.851,4.851,0,0,1-.4-0.655c-0.035-.064-0.07-0.127-0.106-0.19a1.2,1.2,0,0,1-.111-0.248l-0.018-.059c-0.005-.018-0.01-0.035-0.016-0.053l-0.027-.082-0.1.036a5.589,5.589,0,0,1-4.311-.006,6.291,6.291,0,0,1-1.331-.873l-0.054-.044a2.229,2.229,0,0,1-.278-0.28c-0.032-.037-0.065-0.074-0.1-0.11a5.531,5.531,0,0,1-1.283-3.43h-0.063a5.785,5.785,0,0,1-2.134-.355c-0.075-.03-0.151-0.057-0.228-0.084a4.681,4.681,0,0,1-1.474-.963l-0.054-.05a5.015,5.015,0,0,1-1.434-2.737c-0.006-.032-0.012-0.064-0.019-0.1a5.2,5.2,0,0,1,.251-2.569,0.238,0.238,0,0,0-.014-0.164,0.509,0.509,0,0,0-.15-0.054,2.75,2.75,0,0,1-.361-0.135l-0.125-.055a3.592,3.592,0,0,1-.49-0.261l-0.064-.038a2.626,2.626,0,0,1-.307-0.218l-0.061-.048a5.06,5.06,0,0,1-1.707-2.4c-0.018-.05-0.018-0.05-0.035-0.1a4.49,4.49,0,0,1-.187-1.43c0-.062,0-0.124,0-0.186a3.712,3.712,0,0,1,.08-0.935l0.015-.059,0.045-.174c0.008-.032.016-0.064,0.025-0.1a4.2,4.2,0,0,1,1.024-1.918,0.081,0.081,0,0,0,.033-0.106,0.3,0.3,0,0,0-.1-0.137l-0.051-.046c-0.018-.016-0.036-0.031-0.054-0.048a4.974,4.974,0,0,1-1.094-1.379c-0.025-.048-0.051-0.095-0.078-0.143a4.561,4.561,0,0,1-.311-0.8c-0.015-.048-0.03-0.1-0.046-0.144a4.513,4.513,0,0,1-.054-2.393l0.036-.14a5.151,5.151,0,0,1,.889-1.819l0.059-.08a5.246,5.246,0,0,1,1.374-1.206l0.061-.038a0.692,0.692,0,0,1,.329-0.118c-0.057-.137-0.12-0.268-0.187-0.4a4.726,4.726,0,0,1-.331-0.819c-0.02-.065-0.042-0.126-0.068-0.189a1.7,1.7,0,0,1-.084-0.4c0-.024-0.007-0.048-0.01-0.073-0.01-.071-0.019-0.143-0.028-0.214,0-.021,0-0.041-0.008-0.062a4.764,4.764,0,0,1,.942-3.421c0.059-.074.12-0.146,0.182-0.217l0.059-.069a4.541,4.541,0,0,1,1.872-1.346l0.116-.05a5.369,5.369,0,0,1,1.136-.3l0.1-.017,0.227-.037-0.006-.067a5.137,5.137,0,0,1,.06-1.511c0.006-.026.011-0.052,0.017-0.079a5.089,5.089,0,0,1,.337-1.037l0.03-.072a4.392,4.392,0,0,1,.759-1.152l0.043-.05a4.931,4.931,0,0,1,2.584-1.493l0.068-.016a4.54,4.54,0,0,1,1.065-.111h0.063a5.618,5.618,0,0,1,1.119.112,0.3,0.3,0,0,0,.173-0.02,1.817,1.817,0,0,0,.068-0.213c0.011-.042.023-0.085,0.035-0.127,0-.021.011-0.042,0.017-0.064a3.847,3.847,0,0,1,.234-0.63c0.02-.046.04-0.092,0.061-0.138l0.047-.107h0.055l0.006-.057a0.854,0.854,0,0,1,.131-0.261c0.011-.017.022-0.034,0.034-0.051a4.958,4.958,0,0,1,2.959-2.083l0.082-.021a5.352,5.352,0,0,1,1.262-.124h0.067a4.892,4.892,0,0,1,2.37.611l0.085,0.045a3.506,3.506,0,0,1,.384.233,0.115,0.115,0,0,0,.1.018,0.323,0.323,0,0,0,.144-0.135A5.034,5.034,0,0,1,178,128.867l0.074-.02A5.222,5.222,0,0,1,180.913,128.867Zm-4.218,1.877-0.04.036a3.824,3.824,0,0,0-.531.563l-0.071.09a2.067,2.067,0,0,0-.446.808h-0.054c-0.018.072-.036,0.144-0.055,0.218a0.572,0.572,0,0,1-.233-0.193,3.134,3.134,0,0,0-.447-0.406l-0.086-.069a4,4,0,0,0-1.051-.587l-0.112-.046a2.52,2.52,0,0,0-.523-0.131l-0.095-.018-0.255-.047-0.082-.015a3.254,3.254,0,0,0-1.143.042l-0.107.022a4.307,4.307,0,0,0-2.124,1.148l-0.064.059a3.759,3.759,0,0,0-.48.594c-0.02.029-.039,0.057-0.06,0.086a0.982,0.982,0,0,0-.1.2,2.408,2.408,0,0,1-.141.305,1.635,1.635,0,0,0-.147.453,0.123,0.123,0,0,1-.042.1c-0.014.07-.028,0.139-0.04,0.209-0.006.029-.006,0.029-0.011,0.059l-0.03.167c-0.007.039-.007,0.039-0.015,0.079a1.725,1.725,0,0,0-.015.249v0.092c0,0.031,0,.062,0,0.094V135c0,0.078,0,.156,0,0.234l-0.092-.041a4.936,4.936,0,0,0-2.411-.476l-0.055.027q-0.078.013-.156,0.024a4.391,4.391,0,0,0-1.476.493l-0.091.049a4.1,4.1,0,0,0-.78.6l-0.06.055a2.963,2.963,0,0,0-.7,1.006c-0.015.035-.03,0.069-0.046,0.1a3.389,3.389,0,0,0-.344,1.471c0,0.059,0,.117,0,0.175a4.333,4.333,0,0,0,.133,1.082l0.036,0.143c0,0.02.011,0.04,0.016,0.061,0.019,0.085.03,0.171,0.042,0.257l-0.1,0-0.378.007-0.162,0a4.733,4.733,0,0,0-1.162.128l-0.065.017a3.971,3.971,0,0,0-.637.254c-0.049.023-.1,0.044-0.15,0.065a1.935,1.935,0,0,0-.278.155l-0.051.033a4.115,4.115,0,0,0-.417.316l-0.041.035a3.95,3.95,0,0,0-.911,1.107v0.082H157.7a5.476,5.476,0,0,0-.311.832l-0.02.073a3.635,3.635,0,0,0,0,1.762c0.011,0.045.022,0.09,0.034,0.135a5.322,5.322,0,0,0,1.052,1.959,0.7,0.7,0,0,1,.111.164l-0.094.009a2.235,2.235,0,0,0-.362.083l-0.061.017a0.684,0.684,0,0,0-.272.136c-0.041.018-.082,0.035-0.124,0.051a3.792,3.792,0,0,0-1.781,1.418l-0.035.053a4.265,4.265,0,0,0-.6,1.437c-0.013.051-.028,0.1-0.044,0.151a1.953,1.953,0,0,0-.036.512v0.058a3.74,3.74,0,0,0,.119.972c0.005,0.022.011,0.045,0.017,0.068a3.842,3.842,0,0,0,.636,1.374l0.033,0.045a4.948,4.948,0,0,0,1.245,1.152L157.3,155a0.875,0.875,0,0,0,.295.1v0.054l0.164,0.027v0.082l-0.06.02a3.782,3.782,0,0,0-1.607,2,4.11,4.11,0,0,0,.06,3.1,4.3,4.3,0,0,0,.682,1.056l0.059,0.07a4.2,4.2,0,0,0,.784.665l0.064,0.046a1.6,1.6,0,0,0,.373.195c0.08,0.031.158,0.065,0.236,0.1a4.675,4.675,0,0,0,1.5.365,0.361,0.361,0,0,1-.136.245,0.6,0.6,0,0,0-.136.326h-0.055a4.838,4.838,0,0,0-.354,3.1h0.055c0,0.031,0,.062.008,0.094a1.4,1.4,0,0,0,.1.36l0.026,0.065a3.533,3.533,0,0,0,.46.814l0.053,0.069a3.734,3.734,0,0,0,.9.856l0.051,0.033c0.127,0.082.255,0.161,0.384,0.24l0.071,0.043a1.854,1.854,0,0,0,.419.174,1.058,1.058,0,0,1,.167.067,2.028,2.028,0,0,0,.419.113l0.084,0.018a5.292,5.292,0,0,0,2.3-.143c-0.017.111-.035,0.223-0.052,0.335q-0.007.047-.015,0.1l-0.015.092c0,0.028-.009.056-0.013,0.085a0.688,0.688,0,0,1-.041.153,4.535,4.535,0,0,0,.109,1.442l0.018,0.069a4,4,0,0,0,1.261,2.081l0.062,0.056a4.412,4.412,0,0,0,3.094.978,4.553,4.553,0,0,0,2.185-.821l0.057-.04,0.05-.036a0.461,0.461,0,0,1,.157-0.056l0.015,0.082q0.068,0.369.148,0.735h0.055l0.006,0.064a1.86,1.86,0,0,0,.13.369l0.033,0.077a4.1,4.1,0,0,0,.752,1.14c0.052,0.057.1,0.115,0.15,0.174a3.91,3.91,0,0,0,2.139,1.114l0.09,0.019a4.235,4.235,0,0,0,3.039-.726,3.165,3.165,0,0,0,.272-0.218l0.066-.057a5.224,5.224,0,0,0,.8-0.867l0.041-.057c0.027-.037.054-0.074,0.08-0.112s0.066-.088.1-0.131H179.5a0.673,0.673,0,0,1,.068.1l0.042,0.063c0.014,0.023.029,0.046,0.045,0.07a4.4,4.4,0,0,0,.564.678c0.034,0.035.068,0.071,0.1,0.107a3.991,3.991,0,0,0,2.616,1.192,4.1,4.1,0,0,0,1.026-.059l0.064-.014a4.2,4.2,0,0,0,2.439-1.509l0.033-.045a5.649,5.649,0,0,0,.457-0.717c0.014-.025.027-0.05,0.042-0.076a1.435,1.435,0,0,0,.148-0.441H187.2a4.213,4.213,0,0,0,.163-0.653c0.01-.056.02-0.112,0.031-0.169,0-.025.009-0.05,0.013-0.076s0.007-.036.01-0.055a1.318,1.318,0,0,1,.3.162,5.1,5.1,0,0,0,1.333.628l0.092,0.027a4.385,4.385,0,0,0,3.2-.436,4.217,4.217,0,0,0,1.551-1.578v-0.054h0.054c0.089-.216.171-0.435,0.252-0.654l0.042-.107a3.076,3.076,0,0,0,.148-1.149v-0.055a2.849,2.849,0,0,0-.071-0.742c-0.041-.166-0.068-0.335-0.1-0.5l0.064,0.021a5.782,5.782,0,0,0,.671.17l0.073,0.014a2.582,2.582,0,0,0,.317.02h0.066a4.659,4.659,0,0,0,2.4-.551l0.081-.041a3.738,3.738,0,0,0,1.768-2.127c0.034-.111.065-0.222,0.095-0.334,0.014-.052.029-0.1,0.044-0.156a4.01,4.01,0,0,0-.138-2.212l-0.023-.077a1.825,1.825,0,0,0-.139-0.328c-0.023-.047-0.044-0.1-0.064-0.144a3.378,3.378,0,0,0-.184-0.353,1.774,1.774,0,0,1-.189-0.377h0.075a4.353,4.353,0,0,0,2.958-1.423,4,4,0,0,0,.868-1.591l0.02-.068a3.6,3.6,0,0,0,.115-0.986c0-.063,0-0.126,0-0.19a3.281,3.281,0,0,0-.192-1.1c-0.009-.028-0.019-0.056-0.029-0.085a4.325,4.325,0,0,0-.932-1.522l-0.064-.072a3.749,3.749,0,0,0-.52-0.437l-0.059-.044-0.053-.039-0.038-.034V155.2a0.6,0.6,0,0,1,.245-0.108v-0.055l0.055-.019a1.729,1.729,0,0,0,.276-0.161l0.055-.037a4.868,4.868,0,0,0,.43-0.327l0.067-.057a4.087,4.087,0,0,0,1.38-2.64c0.009-.138.011-0.276,0.01-0.415v-0.064a3.989,3.989,0,0,0-1.185-2.793,4.537,4.537,0,0,0-1.034-.724l-0.088-.05a4.213,4.213,0,0,0-.728-0.277l-0.088-.028a0.887,0.887,0,0,0-.293-0.053,1.155,1.155,0,0,1,.2-0.294,4.3,4.3,0,0,0,1.075-3.053,3.734,3.734,0,0,0-.164-0.87c-0.009-.032-0.018-0.063-0.027-0.1a3.209,3.209,0,0,0-.19-0.5l-0.036-.076a3.983,3.983,0,0,0-2.283-1.983l-0.127-.044c-0.049-.016-0.1-0.034-0.146-0.052a3.868,3.868,0,0,0-1.267-.166h-0.079a2.644,2.644,0,0,0-.524.064c0-.016.01-0.033,0.016-0.049a4.24,4.24,0,0,0,.065-2.835l-0.024-.064a3.44,3.44,0,0,0-.357-0.753l-0.044-.067c-0.048-.069-0.1-0.137-0.146-0.205l-0.047-.064a4.106,4.106,0,0,0-2.706-1.531c-0.2-.019-0.394-0.017-0.59-0.017H192.85a4.165,4.165,0,0,0-.945.089l-0.089.018a2.664,2.664,0,0,0-.841.339,0.255,0.255,0,0,1-.159.024l0-.062a4.215,4.215,0,0,0-.323-1.734l-0.048-.1c-0.032-.065-0.065-0.129-0.1-0.194s-0.059-.124-0.085-0.187a3.8,3.8,0,0,0-1.909-1.674c-0.138-.052-0.277-0.1-0.417-0.143-0.045-.015-0.09-0.03-0.135-0.047a3.934,3.934,0,0,0-2.178,0l-0.067.018A4.457,4.457,0,0,0,183.5,132.4l-0.027.055-0.081.027c-0.011-.041-0.011-0.041-0.021-0.082a1.329,1.329,0,0,0-.113-0.267c-0.024-.049-0.046-0.1-0.067-0.15a1.819,1.819,0,0,0-.157-0.283c-0.01-.017-0.021-0.033-0.032-0.05a4.256,4.256,0,0,0-.345-0.447l-0.05-.06a2.941,2.941,0,0,0-.358-0.348l-0.069-.062A4.22,4.22,0,0,0,176.7,130.744Zm2.752,6.035h0.943a1.2,1.2,0,0,1,.223.031l0.129,0.011,0.075,0.006,0.08,0.006c0.319,0.027.634,0.069,0.951,0.118l0.082,0.013a17.6,17.6,0,0,1,3.989,1.1l0.07,0.029a16.692,16.692,0,0,1,2.787,1.468l0.113,0.074c0.349,0.228.683,0.478,1.012,0.735l0.138,0.106c0.31,0.24.606,0.494,0.894,0.76,0.039,0.034.077,0.069,0.116,0.1,0.187,0.158.358,0.333,0.53,0.506l0.165,0.165c0.168,0.168.334,0.336,0.487,0.518l0.129,0.139c0.13,0.142.248,0.29,0.365,0.441,0.051,0.067.1,0.132,0.157,0.2a15.088,15.088,0,0,1,1.063,1.507l0.062,0.1q0.19,0.3.37,0.609l0.037,0.063a0.81,0.81,0,0,1,.211.483h0.055a4.665,4.665,0,0,1,.3.642c0.023,0.058.047,0.114,0.073,0.171,0.07,0.158.137,0.318,0.2,0.478,0.021,0.052.043,0.1,0.064,0.155,0.074,0.177.144,0.354,0.206,0.535a0.4,0.4,0,0,0,.078.141l0.036,0.166c0.051,0.218.126,0.431,0.2,0.642,0.01,0.032.01,0.032,0.022,0.065s0.027,0.082.042,0.123a4.21,4.21,0,0,1,.136.553c0.027,0.137.061,0.27,0.1,0.405a4.55,4.55,0,0,1,.113.567,0.209,0.209,0,0,0,.037.118c0.049,0.25.074,0.506,0.1,0.759,0.018,0.146.037,0.292,0.059,0.438a15.725,15.725,0,0,1-.109,4.517c0,0.029-.009.059-0.014,0.09-0.027.186-.055,0.371-0.1,0.554a1.716,1.716,0,0,0-.039.247,0.821,0.821,0,0,1-.068.251c-0.007.036-.014,0.072-0.02,0.108-0.045.234-.117,0.462-0.184,0.69l-0.022.075a18.439,18.439,0,0,1-.992,2.62c-0.03.064-.06,0.129-0.088,0.193a10.125,10.125,0,0,1-.477.9l-0.1.176a15.672,15.672,0,0,1-1.654,2.343c-0.012.013-.023,0.027-0.035,0.042q-0.255.306-.527,0.6c-0.035.038-.07,0.076-0.1,0.115-0.16.178-.327,0.349-0.5,0.518l-0.065.066c-0.115.115-.232,0.225-0.355,0.331-0.076.066-.149,0.135-0.222,0.2-0.155.144-.316,0.279-0.482,0.411l-0.146.121c-0.166.136-.335,0.267-0.507,0.4l-0.05.038a18.081,18.081,0,0,1-2.426,1.513l-0.075.039a15.942,15.942,0,0,1-2.1.886l-0.094.033a13.517,13.517,0,0,1-1.407.4c-0.072.018-.143,0.035-0.214,0.054-0.236.06-.471,0.11-0.712,0.15l-0.1.017c-0.409.069-.818,0.126-1.23,0.175l-0.083.01a13,13,0,0,1-1.541.058h-0.305a12.626,12.626,0,0,1-1.717-.083l-0.171-.022-0.164-.022c-0.112-.014-0.224-0.026-0.337-0.038a12.863,12.863,0,0,1-1.413-.275l-0.058-.014c-0.222-.051-0.44-0.108-0.657-0.177-0.083-.026-0.167-0.05-0.251-0.073a10.763,10.763,0,0,1-1.174-.4c-0.106-.043-0.213-0.083-0.32-0.122-0.145-.054-0.286-0.111-0.426-0.177-0.066-.031-0.133-0.06-0.2-0.09a16.275,16.275,0,0,1-2.36-1.31L170,168.121c-0.2-.127-0.386-0.262-0.573-0.4l-0.049-.036c-0.28-.207-0.553-0.422-0.822-0.644L168.513,167c-0.23-.19-0.448-0.391-0.666-0.595-0.074-.07-0.15-0.139-0.225-0.208a5.605,5.605,0,0,1-.483-0.492c-0.046-.052-0.094-0.1-0.143-0.149-0.1-.1-0.194-0.2-0.286-0.313l-0.074-.085c-0.177-.2-0.346-0.411-0.511-0.624l-0.135-.172c-0.193-.246-0.382-0.493-0.559-0.751l-0.047-.069a18.709,18.709,0,0,1-1.123-1.863l-0.042-.081a15.819,15.819,0,0,1-1.481-4.136c0-.02-0.009-0.04-0.013-0.06a16.656,16.656,0,0,1-.277-1.749c-0.009-.085-0.017-0.169-0.027-0.254a15.234,15.234,0,0,1-.071-1.641v-0.1a12.939,12.939,0,0,1,.078-1.562c0-.028,0-0.028.007-0.056a7.175,7.175,0,0,1,.493-2.5c0.013-.052.027-0.1,0.039-0.158,0.028-.108.063-0.213,0.1-0.32,0.048-.148.094-0.3,0.136-0.447l0.039-.114a2.977,2.977,0,0,0,.082-0.294,1.685,1.685,0,0,1,.122-0.345c0.023-.05.044-0.1,0.063-0.154,0.059-.161.128-0.317,0.2-0.474,0.023-.054.046-0.107,0.07-0.161,0.082-.191.168-0.378,0.263-0.563,0.047-.095.086-0.192,0.124-0.29a0.85,0.85,0,0,1,.048-0.108h0.054c0-.018,0-0.037.008-0.055a1.151,1.151,0,0,1,.12-0.282l0.032-.06a16.888,16.888,0,0,1,2.336-3.262l0.113-.126c0.175-.2.361-0.386,0.549-0.573,0.055-.055.109-0.11,0.164-0.164,0.167-.167.334-0.332,0.515-0.484l0.095-.084a18.8,18.8,0,0,1,3.986-2.625l0.051-.026c0.108-.054.218-0.1,0.33-0.149l0.056-.026a0.5,0.5,0,0,1,.243-0.056v-0.054l0.095-.033,0.135-.047,0.073-.026q0.247-.086.492-0.176a17.117,17.117,0,0,1,2.579-.725l0.086-.017c0.372-.072.744-0.131,1.119-0.179l0.1-.012,0.266-.03,0.124-.014A12.814,12.814,0,0,1,179.447,136.779ZM177.7,137.9l-0.095.01a14.256,14.256,0,0,0-2.031.372l-0.2.049a13.219,13.219,0,0,0-1.712.549c-0.149.057-.3,0.11-0.45,0.163V139.1l-0.053.007a1.371,1.371,0,0,0-.252.095c-0.073.033-.147,0.065-0.221,0.1a12.33,12.33,0,0,0-1.488.782l-0.075.045c-0.358.215-.7,0.446-1.04,0.689l-0.068.049c-0.249.18-.492,0.362-0.724,0.563-0.075.065-.151,0.127-0.228,0.189-0.143.116-.277,0.239-0.41,0.364-0.073.068-.147,0.134-0.221,0.2-0.145.131-.284,0.267-0.422,0.406l-0.123.122c-0.13.13-.257,0.261-0.376,0.4-0.056.065-.115,0.128-0.173,0.191-0.134.147-.26,0.3-0.384,0.454l-0.05.061a15.573,15.573,0,0,0-1.471,2.172c-0.025.044-.052,0.087-0.08,0.129a0.186,0.186,0,0,0-.032.168h-0.054c-0.013.031-.027,0.062-0.041,0.094-0.059.132-.119,0.263-0.18,0.394l-0.029.063-0.027.059c-0.009.017-.017,0.035-0.025,0.053a0.284,0.284,0,0,1-.079.1c-0.017.038-.033,0.076-0.047,0.115-0.045.116-.092,0.23-0.142,0.344l-0.043.1-0.066.151c-0.021.05-.043,0.1-0.064,0.149l-0.039.089c-0.036.091-.062,0.183-0.089,0.277-0.02.059-.041,0.117-0.062,0.175-0.077.213-.146,0.428-0.215,0.643l-0.054.169-0.048.151c-0.025.076-.053,0.149-0.083,0.223s-0.047.164-.068,0.246l-0.018.065c-0.039.149-.067,0.3-0.091,0.45-0.017.1-.039,0.2-0.061,0.306a13,13,0,0,0-.283,2.052c0,0.029,0,.029,0,0.06-0.023.422-.026,0.845-0.027,1.268,0,0.031,0,.063,0,0.1a10.217,10.217,0,0,0,.062,1.2c0,0.031.007,0.062,0.01,0.095a17.908,17.908,0,0,0,.313,1.909c0.041,0.192.077,0.386,0.112,0.58h0.055l0,0.163a0.273,0.273,0,0,0,.03.137h0.054c0,0.026.007,0.053,0.01,0.08a2.1,2.1,0,0,0,.087.343l0.021,0.067c0.014,0.046.029,0.092,0.044,0.138,0.022,0.07.044,0.14,0.065,0.209a7.021,7.021,0,0,0,.263.714l0.078,0.184a17.449,17.449,0,0,0,.983,1.992l0.042,0.072a14.893,14.893,0,0,0,1.121,1.652l0.106,0.137c0.254,0.329.526,0.64,0.808,0.945l0.144,0.157a8.369,8.369,0,0,0,.8.8c0.058,0.05.115,0.1,0.171,0.154,0.139,0.129.28,0.253,0.427,0.371l0.181,0.148a14.5,14.5,0,0,0,3.56,2.175l0.145,0.062a17.028,17.028,0,0,0,2.971.946l0.1,0.024a14.3,14.3,0,0,0,3.175.334h0.262a14.14,14.14,0,0,0,1.594-.074l0.061-.006a14.371,14.371,0,0,0,2.916-.614c0.072-.024.145-0.045,0.218-0.067a15.2,15.2,0,0,0,4.3-2.127l0.1-.069c0.323-.227.633-0.468,0.936-0.72l0.042-.035c0.205-.17.4-0.346,0.6-0.527l0.116-.105c0.173-.155.339-0.317,0.5-0.481l0.062-.061c0.112-.113.22-0.228,0.323-0.348,0.053-.061.107-0.12,0.161-0.179,0.1-.116.2-0.235,0.3-0.356,0.05-.062.1-0.122,0.15-0.183a13.928,13.928,0,0,0,1.36-1.969l0.042-.072a17.6,17.6,0,0,0,1.543-3.581c0.008-.024.015-0.048,0.023-0.073a2.025,2.025,0,0,0,.079-0.437h0.055q0.083-.418.163-0.837l0.054-.28a10.514,10.514,0,0,0,.218-1.55c0-.043,0-0.086.007-0.129,0.019-.367.025-0.733,0.024-1.1v-0.084a15.3,15.3,0,0,0-.376-3.5c-0.037-.161-0.065-0.323-0.09-0.487h-0.055l-0.01-.107a1.247,1.247,0,0,0-.1-0.432,1.466,1.466,0,0,1-.083-0.25l-0.039-.117-0.021-.062c-0.015-.042-0.029-0.083-0.043-0.125a2.76,2.76,0,0,1-.1-0.377,0.665,0.665,0,0,0-.092-0.187,1.46,1.46,0,0,1-.092-0.229c-0.075-.219-0.169-0.428-0.265-0.638-0.023-.051-0.044-0.1-0.066-0.152-0.041-.094-0.085-0.186-0.131-0.278-0.009-.016-0.017-0.032-0.025-0.049-0.026-.051-0.052-0.1-0.077-0.153l-0.1-.2c-0.023-.044-0.023-0.044-0.046-0.09-0.045-.092-0.085-0.184-0.124-0.279h-0.055c0-.019,0-0.038-0.008-0.058a0.9,0.9,0,0,0-.1-0.236l-0.046-.08c-0.011-.02-0.023-0.04-0.034-0.061h-0.055l-0.016-.064a2.006,2.006,0,0,0-.213-0.381l-0.052-.081a14.736,14.736,0,0,0-1.587-2.068c-0.069-.073-0.136-0.148-0.2-0.225-0.126-.145-0.263-0.28-0.4-0.416-0.046-.045-0.091-0.09-0.136-0.136-0.152-.152-0.305-0.3-0.469-0.438l-0.095-.084a16.711,16.711,0,0,0-1.709-1.314l-0.052-.034a15.958,15.958,0,0,0-6.715-2.54l-0.076-.011A16,16,0,0,0,177.7,137.9Z" transform="translate(-154.094 -128.688)"/>
</svg>
